<?xml version="1.0" encoding="utf-8"?>
<!-- Generator: Adobe Illustrator 25.4.1, SVG Export Plug-In . SVG Version: 6.00 Build 0)  -->
<svg version="1.1" id="Layer_1" xmlns="http://www.w3.org/2000/svg" xmlns:xlink="http://www.w3.org/1999/xlink" x="0px" y="0px"
	 viewBox="0 0 110 105" style="enable-background:new 0 0 110 105;" xml:space="preserve">
<style type="text/css">
	.st0{fill:#FFFFFF;}
	.st1{fill:none;stroke:#FFFFFF;stroke-width:3.4;stroke-miterlimit:10;}
	.st2{fill:none;stroke:#FFFFFF;stroke-width:3.264;stroke-miterlimit:10;}
</style>
<g>
	<g>
		<g>
			<path class="st0" d="M91,8.5c4.41,0,8,3.59,8,8v72c0,4.41-3.59,8-8,8H19c-4.41,0-8-3.59-8-8v-72c0-4.41,3.59-8,8-8H91 M91,4.5H19
				c-6.6,0-12,5.4-12,12v72c0,6.6,5.4,12,12,12h72c6.6,0,12-5.4,12-12v-72C103,9.9,97.6,4.5,91,4.5L91,4.5z"/>
		</g>
	</g>
	<g>
		<path class="st1" d="M75.59,62.12c5.24,2.48,8.47,5.9,8.47,9.67c0,7.57-13.01,13.7-29.06,13.7s-29.06-6.14-29.06-13.7
			c0-3.59,2.93-6.86,7.72-9.3"/>
		<path class="st1" d="M67.68,64.58c2.32,1.15,3.71,2.63,3.71,4.23c0,3.69-7.34,6.68-16.39,6.68s-16.39-2.99-16.39-6.68
			c0-1.6,1.38-3.07,3.69-4.22"/>
	</g>
	<path class="st2" d="M66.86,48.64c0,6.63-5.37,12-12,12s-12-5.37-12-12c0-3.65,2.88-8.16,2.88-8.16c1.28-2.57,1.92-3.84,5.74-9.91
		c1.33-2.11,3.11-5.45,3.11-5.45c9.5,14.81,9.39,15.36,9.39,15.36S66.86,44.91,66.86,48.64z"/>
</g>
</svg>
