<?xml version="1.0" encoding="utf-8"?>
<!-- Generator: Adobe Illustrator 25.4.1, SVG Export Plug-In . SVG Version: 6.00 Build 0)  -->
<svg version="1.1" id="Layer_1" xmlns="http://www.w3.org/2000/svg" xmlns:xlink="http://www.w3.org/1999/xlink" x="0px" y="0px"
	 viewBox="0 0 110 105" style="enable-background:new 0 0 110 105;" xml:space="preserve">
<style type="text/css">
	.st0{fill:#FFFFFF;}
	.st1{fill:none;stroke:#FFFFFF;stroke-width:3.4;stroke-miterlimit:10;}
</style>
<g>
	<g>
		<path class="st0" d="M91,8.5c4.41,0,8,3.59,8,8v72c0,4.41-3.59,8-8,8H19c-4.41,0-8-3.59-8-8v-72c0-4.41,3.59-8,8-8H91 M91,4.5H19
			c-6.6,0-12,5.4-12,12v72c0,6.6,5.4,12,12,12h72c6.6,0,12-5.4,12-12v-72C103,9.9,97.6,4.5,91,4.5L91,4.5z"/>
	</g>
	<g>
		<g>
			<path class="st0" d="M54.63,23.64c12.57,0,22.19,4.14,22.98,9.74l-9,16.73H41.39l-9.01-16.74C33.11,27.6,42.05,23.64,54.63,23.64
				 M54.63,20.24c-14.4,0-25.69,5.06-25.69,13.89L39.36,53.5h31.28l10.43-19.37C81.06,25.3,69.02,20.24,54.63,20.24L54.63,20.24z"/>
		</g>
		<line class="st1" x1="55.19" y1="23" x2="55.19" y2="31.08"/>
		<line class="st1" x1="38.66" y1="24.71" x2="42.22" y2="32.26"/>
		<line class="st1" x1="47.74" y1="35.82" x2="52.21" y2="45.92"/>
		<line class="st1" x1="72.01" y1="24.71" x2="68.45" y2="32.26"/>
		<path class="st1" d="M55.25,53"/>
		<path class="st1" d="M45.51,52.92c0-4.23,4.21-8.84,9.68-8.84s9.68,4.61,9.68,8.84"/>
	</g>
	<g>
		<path class="st1" d="M70.52,74.67"/>
		<g>
			<g>
				<path class="st0" d="M50.37,79.66c1.22,0,2.22,1,2.22,2.22s-1,2.22-2.22,2.22s-2.22-1-2.22-2.22S49.15,79.66,50.37,79.66
					 M50.37,76.26c-3.1,0-5.62,2.52-5.62,5.62s2.52,5.62,5.62,5.62c3.1,0,5.62-2.52,5.62-5.62S53.48,76.26,50.37,76.26L50.37,76.26z
					"/>
			</g>
			<g>
				<path class="st0" d="M66.1,65.2c1.22,0,2.22,1,2.22,2.22s-1,2.22-2.22,2.22s-2.22-1-2.22-2.22S64.88,65.2,66.1,65.2 M66.1,61.8
					c-3.1,0-5.62,2.52-5.62,5.62s2.52,5.62,5.62,5.62c3.1,0,5.62-2.52,5.62-5.62S69.2,61.8,66.1,61.8L66.1,61.8z"/>
			</g>
			<g>
				<path class="st0" d="M36.09,64.9c1.22,0,2.22,1,2.22,2.22s-1,2.22-2.22,2.22s-2.22-1-2.22-2.22S34.87,64.9,36.09,64.9
					 M36.09,61.5c-3.1,0-5.62,2.52-5.62,5.62s2.52,5.62,5.62,5.62s5.62-2.52,5.62-5.62S39.2,61.5,36.09,61.5L36.09,61.5z"/>
			</g>
			<line class="st1" x1="53.58" y1="77.86" x2="62.08" y2="69.83"/>
			<line class="st1" x1="83.23" y1="82.56" x2="69.67" y2="69.83"/>
			<line class="st1" x1="47.35" y1="78.81" x2="38.85" y2="70.78"/>
			<path class="st1" d="M72.52,78.67"/>
			<polyline class="st1" points="74.56,82 83.56,83 82.56,74 			"/>
		</g>
	</g>
</g>
</svg>
