<?xml version="1.0" encoding="utf-8"?>
<!-- Generator: Adobe Illustrator 25.4.1, SVG Export Plug-In . SVG Version: 6.00 Build 0)  -->
<svg version="1.1" id="Layer_1" xmlns="http://www.w3.org/2000/svg" xmlns:xlink="http://www.w3.org/1999/xlink" x="0px" y="0px"
	 viewBox="0 0 560 288" style="enable-background:new 0 0 560 288;" xml:space="preserve">
<style type="text/css">
	.st0{fill:#FFFFFF;}
</style>
<polygon class="st0" points="460.56,71.96 464.78,80.51 474.22,81.88 467.39,88.54 469,97.93 460.56,93.5 452.13,97.93 
	453.74,88.54 446.91,81.88 456.35,80.51 "/>
<circle class="st0" cx="345.85" cy="142.2" r="10.49"/>
<g>
	<g>
		<path class="st0" d="M124.12,191.9l-5.76,12.91c-0.99,2.18-1.79,3.64-2.4,4.39c-0.61,0.75-1.28,1.13-2.02,1.13
			c-0.7,0-1.33-0.3-1.87-0.91c-0.35-0.38-1.16-1.79-2.42-4.22c-1.26-2.43-2.31-4.59-3.14-6.48l-6.34-14.26
			c-0.86-1.98-1.78-2.98-2.74-2.98c-1.02,0-1.58,0.85-1.68,2.54c-0.22,3.78-0.34,7.26-0.34,10.46c0,3.33,0.16,5.58,0.48,6.77
			c0.22,0.7,0.52,1.22,0.89,1.54c0.37,0.32,1.37,0.9,3,1.73c1.06,0.54,1.58,1.49,1.58,2.83c0,3.58-4.59,5.38-13.78,5.38
			c-7.75,0-11.62-1.74-11.62-5.23c0-0.9,0.2-1.54,0.6-1.94s1.43-1,3.1-1.8c1.06-0.48,1.77-1.13,2.14-1.97
			c0.37-0.83,0.68-2.45,0.94-4.85c0.29-2.56,0.56-6.76,0.82-12.6c0.26-5.84,0.38-10.84,0.38-15c0-5.22-0.4-8.75-1.2-10.61
			c-0.29-0.64-0.62-1.12-0.98-1.44c-0.37-0.32-1.06-0.74-2.09-1.25c-2.27-1.09-3.41-2.5-3.41-4.22c0-1.12,0.42-2.14,1.27-3.07
			c0.85-0.93,1.98-1.58,3.38-1.97c1.41-0.42,3.29-0.78,5.64-1.08c2.35-0.3,4.34-0.46,5.98-0.46c4.1,0,6.99,0.34,8.69,1.01
			c0.83,0.32,1.49,0.75,1.97,1.3c0.48,0.54,1.17,1.66,2.06,3.36l9.98,18.38c1.09,2.02,1.84,3.25,2.26,3.7s0.99,0.67,1.73,0.67
			c0.64,0,1.21-0.24,1.7-0.72c0.5-0.48,1.08-1.38,1.75-2.69l6.77-13.2c0.83-1.7,1.38-2.8,1.63-3.31c1.57-3.2,3.12-5.33,4.66-6.38
			c1.95-1.38,5.5-2.06,10.66-2.06c9.06,0,13.58,2.06,13.58,6.19c0,0.93-0.18,1.67-0.53,2.23c-0.35,0.56-1.07,1.24-2.16,2.04
			c-1.47,1.12-2.4,2.74-2.78,4.85c-0.74,4.42-1.1,9.79-1.1,16.13c0,8.16,0.38,15.31,1.15,21.46c0.19,1.5,0.49,2.53,0.89,3.07
			s1.43,1.36,3.1,2.45c1.15,0.77,1.73,1.79,1.73,3.07c0,2.24-1.49,3.82-4.46,4.75c-1.54,0.51-3.15,0.85-4.85,1.01
			c-1.7,0.16-4.3,0.24-7.82,0.24c-5.41,0-9.44-0.38-12.1-1.15c-2.94-0.86-4.42-2.34-4.42-4.42c0-0.77,0.19-1.4,0.58-1.9
			s1.38-1.4,2.98-2.71c0.83-0.67,1.4-1.97,1.7-3.89c0.3-1.92,0.46-5.18,0.46-9.79c0-2.56-0.12-4.24-0.36-5.04
			c-0.24-0.8-0.74-1.2-1.51-1.2c-0.9,0-1.76,0.62-2.59,1.85C127.03,185.77,125.78,188.22,124.12,191.9z"/>
		<path class="st0" d="M193.1,163.92c5.86,0,10.99,1.52,15.41,4.56c3.17,2.18,5.71,5.01,7.63,8.5c1.98,3.65,2.98,7.46,2.98,11.42
			c0,6.94-3.18,12.85-9.55,17.71c-6.08,4.64-13.04,6.96-20.88,6.96c-7.65,0-13.84-2.18-18.58-6.53c-4.61-4.22-6.91-9.73-6.91-16.51
			c0-7.55,2.82-13.73,8.45-18.53C177.53,166.45,184.68,163.92,193.1,163.92z M189.26,175c-1.41,0-2.54,0.52-3.38,1.56
			c-0.85,1.04-1.27,2.42-1.27,4.15c0,1.92,0.36,4.54,1.08,7.85c0.72,3.31,1.58,6.25,2.57,8.81c0.99,2.62,2.61,3.94,4.85,3.94
			c2.85,0,4.27-1.81,4.27-5.42c0-2.69-0.36-5.74-1.08-9.17c-0.72-3.42-1.59-6.21-2.62-8.35C192.62,176.19,191.14,175.07,189.26,175z
			"/>
		<path class="st0" d="M241.77,163.96c1.6,0,4.21,0.35,7.82,1.06c0.74,0.13,1.34,0.19,1.82,0.19c0.54,0,1.6-0.29,3.17-0.86
			c0.74-0.29,1.36-0.43,1.87-0.43c1.47,0,2.96,0.94,4.46,2.83c1.22,1.5,2.21,3.15,2.98,4.94c0.77,1.79,1.15,3.34,1.15,4.66
			c0,1.28-0.45,2.34-1.34,3.19c-0.9,0.85-2.02,1.27-3.36,1.27c-1.12,0-2.12-0.27-3-0.82c-0.88-0.54-2.3-1.74-4.25-3.6
			c-2.05-1.98-3.74-2.98-5.09-2.98c-0.9,0-1.67,0.33-2.33,0.98c-0.66,0.66-0.98,1.43-0.98,2.33c0,1.57,1.5,3.04,4.51,4.42
			c5.41,2.43,9.55,5.09,12.43,7.97c2.43,2.43,3.65,5.41,3.65,8.93c0,4.45-1.95,8.16-5.86,11.14c-3.36,2.59-7.47,3.89-12.34,3.89
			c-1.25,0-3.52-0.21-6.82-0.62c-3.1-0.35-4.85-0.53-5.23-0.53c-0.42,0-0.9,0.05-1.44,0.14c-0.93,0.13-1.6,0.19-2.02,0.19
			c-1.5,0-2.69-0.38-3.55-1.15c-1.31-1.18-2.53-3.05-3.65-5.59c-1.12-2.54-1.68-4.73-1.68-6.55c0-2.94,1.15-4.42,3.46-4.42
			c0.9,0,1.72,0.3,2.47,0.89c0.75,0.59,2.33,2.17,4.73,4.73c1.31,1.41,2.4,2.38,3.26,2.9c0.86,0.53,1.79,0.79,2.78,0.79
			c1.06,0,1.9-0.28,2.54-0.84c0.64-0.56,0.96-1.3,0.96-2.23c0-1.44-1.23-2.75-3.7-3.94c-5.15-2.53-8.87-5.14-11.16-7.82
			c-2.29-2.69-3.43-5.79-3.43-9.31c0-3.81,1.17-7.09,3.5-9.84C231.47,165.93,236.01,163.96,241.77,163.96z"/>
		<path class="st0" d="M296.11,148.6l-0.62,20.11c-0.06,2.4,0.67,3.6,2.21,3.6c0.77,0,1.52-0.53,2.26-1.58
			c3.1-4.51,7.25-6.77,12.43-6.77c5.09,0,9.14,1.55,12.14,4.66c1.34,1.38,2.29,3.01,2.86,4.9c0.56,1.89,0.87,4.59,0.94,8.11
			l0.43,17.33c0.03,1.5,0.23,2.61,0.6,3.31c0.37,0.7,1.22,1.58,2.57,2.64c0.93,0.74,1.39,1.62,1.39,2.64
			c0,3.46-5.21,5.18-15.65,5.18c-9.28,0-13.92-1.62-13.92-4.85c0-0.54,0.08-0.96,0.24-1.25s0.72-1.06,1.68-2.3
			c1.34-1.76,2.02-6.16,2.02-13.2c0-4.25-0.4-7.36-1.2-9.31c-1.06-2.66-2.94-3.98-5.66-3.98c-1.95,0-3.39,0.7-4.32,2.11
			c-0.67,1.02-1.01,2.94-1.01,5.76v9.26c0.22,4.1,0.42,6.42,0.58,6.96c0.16,0.54,0.9,1.55,2.21,3.02c0.61,0.67,0.91,1.46,0.91,2.35
			c0,3.62-4.71,5.42-14.11,5.42c-11.01,0-16.51-1.87-16.51-5.62c0-0.86,0.18-1.53,0.53-1.99c0.35-0.46,1.22-1.18,2.59-2.14
			c1.22-0.86,2.06-3.19,2.52-6.98s0.7-10.07,0.7-18.84c0-6.88-0.19-11.65-0.58-14.3c-0.13-0.99-0.36-1.72-0.7-2.18
			s-0.97-0.94-1.9-1.42c-1.98-1.02-2.98-2.21-2.98-3.55c0-1.6,0.75-2.9,2.26-3.89c1.5-0.99,4.38-2.06,8.64-3.22
			c5.76-1.6,10.35-2.4,13.78-2.4C295.27,146.2,296.17,147,296.11,148.6z"/>
		<path class="st0" d="M478.34,181.68l0.67,16.9c0.06,1.28,0.26,2.22,0.6,2.83c0.34,0.61,1.32,1.78,2.95,3.5
			c0.48,0.51,0.72,1.23,0.72,2.16c0,2.11-1.26,3.58-3.79,4.42c-2.53,0.83-7.04,1.25-13.54,1.25c-4.42,0-7.54-0.38-9.36-1.15
			c-1.89-0.8-2.83-2.09-2.83-3.89c0-0.64,0.1-1.11,0.29-1.42c0.19-0.3,0.83-1.05,1.92-2.23c1.28-1.34,1.92-5.82,1.92-13.44
			c0-4.42-0.51-7.68-1.54-9.79c-0.83-1.7-2.37-2.54-4.61-2.54c-2.14,0-3.62,0.69-4.42,2.06s-1.2,3.87-1.2,7.49v9.5
			c0,1.89,0.12,3.18,0.36,3.89c0.24,0.71,1.03,2.06,2.38,4.08c0.35,0.58,0.53,1.23,0.53,1.97c0,1.89-1.31,3.28-3.94,4.18
			s-6.72,1.34-12.29,1.34c-8.9,0-13.34-1.84-13.34-5.52c0-0.77,0.14-1.35,0.41-1.75c0.27-0.4,0.92-0.97,1.94-1.7
			c0.83-0.61,1.36-1.3,1.58-2.09c0.22-0.78,0.43-2.71,0.62-5.78c0.22-3.65,0.34-7.47,0.34-11.47c0-2.21-0.17-3.66-0.5-4.34
			s-1.3-1.53-2.9-2.52c-1.38-0.86-2.06-1.92-2.06-3.17c0-1.28,0.56-2.33,1.68-3.14c1.12-0.82,3.42-1.85,6.91-3.1
			c3.07-1.09,6.03-2.01,8.88-2.76c2.85-0.75,4.8-1.13,5.86-1.13c0.96,0,1.77,0.35,2.42,1.06c0.66,0.7,0.98,1.54,0.98,2.5
			c0,0.1-0.02,0.5-0.05,1.2c-0.03,0.26-0.05,0.48-0.05,0.67c0,1.54,0.64,2.3,1.92,2.3c0.77,0,1.58-0.61,2.45-1.82
			c2.75-3.97,6.75-5.95,12-5.95c4.03,0,7.49,1.06,10.37,3.17c2.02,1.5,3.42,3.27,4.22,5.3
			C477.65,174.76,478.15,177.74,478.34,181.68z"/>
	</g>
</g>
<g>
	<path class="st0" d="M370.33,214.12c3.95,1.75,8.07,2.61,12.38,2.57c3.28-0.03,6.55-0.58,9.8-1.66c5.28-1.77,9.55-4.63,12.79-8.59
		c3.84-4.66,5.73-9.93,5.67-15.8c-0.04-3.98-1.06-7.95-3.06-11.91c-2.05-3.99-4.71-7.22-7.96-9.7c-4.81-3.61-10.41-5.39-16.8-5.33
		c-4.13,0.04-7.88,0.72-11.25,2.05c-0.8,0.31-1.54,0.69-2.29,1.06c-4.52,12.8-6.45,26.63-6.67,42.28
		C365.04,211.15,367.48,212.86,370.33,214.12z M374.75,177.29c1.2-1.88,2.85-2.83,4.94-2.85c1.27,0.04,2.53,0.49,3.78,1.34
		c1.25,0.86,2.36,2.04,3.32,3.55c1.57,2.45,2.85,5.41,3.85,8.88c1,3.47,1.52,6.71,1.55,9.72c0.02,2.31-0.54,4.18-1.68,5.61
		c-1.14,1.43-2.66,2.15-4.55,2.17c-1.17,0.01-2.32-0.34-3.46-1.05c-1.14-0.71-2.1-1.67-2.88-2.88c-1.77-2.84-3.24-6.11-4.42-9.79
		c-1.18-3.68-1.78-6.93-1.81-9.74C373.37,180.35,373.82,178.69,374.75,177.29z"/>
	<path class="st0" d="M421.54,105.45c8.82-6.23,18.04-11.48,27.5-15.87c-18.15,5.3-35.75,13.59-52.06,25.11
		c-43.27,30.55-55.74,57.27-58.37,99.28h24.3c-0.01-1.65,0-3.27,0.02-4.88c-1.43-1.39-2.75-2.92-3.85-4.68
		c-2.65-4.2-4-8.86-4.05-13.96c-0.06-5.92,1.58-11.16,4.89-15.72c2.47-3.41,5.73-6.02,9.68-7.94
		C377.45,144.59,393.15,125.5,421.54,105.45z"/>
</g>
</svg>
