<?xml version="1.0" encoding="utf-8"?>
<!-- Generator: Adobe Illustrator 25.4.1, SVG Export Plug-In . SVG Version: 6.00 Build 0)  -->
<svg version="1.1" id="Layer_1" xmlns="http://www.w3.org/2000/svg" xmlns:xlink="http://www.w3.org/1999/xlink" x="0px" y="0px"
	 viewBox="0 0 110 105" style="enable-background:new 0 0 110 105;" xml:space="preserve">
<style type="text/css">
	.st0{fill:none;stroke:#FFFFFF;stroke-width:3.4;stroke-miterlimit:10;}
	.st1{fill:#FFFFFF;}
</style>
<g>
	<line class="st0" x1="41" y1="25.5" x2="41" y2="60.72"/>
	<polyline class="st0" points="33.15,53.73 41.28,62.54 48.85,53.73 	"/>
</g>
<g>
	<line class="st0" x1="35.83" y1="72.5" x2="35.83" y2="83.5"/>
</g>
<g>
	<line class="st0" x1="57" y1="72.5" x2="57" y2="83.5"/>
</g>
<g>
	<line class="st0" x1="46" y1="72.5" x2="46" y2="83.5"/>
</g>
<g>
	<g>
		<path class="st1" d="M91,8.5c4.41,0,8,3.59,8,8v72c0,4.41-3.59,8-8,8H19c-4.41,0-8-3.59-8-8v-72c0-4.41,3.59-8,8-8H91 M91,4.5H19
			c-6.6,0-12,5.4-12,12v72c0,6.6,5.4,12,12,12h72c6.6,0,12-5.4,12-12v-72C103,9.9,97.6,4.5,91,4.5L91,4.5z"/>
	</g>
</g>
<g>
	<line class="st0" x1="67" y1="25.5" x2="67" y2="60.72"/>
	<polyline class="st0" points="59.15,53.73 67.28,62.54 74.85,53.73 	"/>
</g>
<g>
	<path class="st0" d="M85.46,80.5L85.46,80.5c0-4.55-3.72-8.27-8.27-8.27H24.73"/>
</g>
<g>
	<line class="st0" x1="68" y1="72.5" x2="68" y2="83.5"/>
</g>
<path class="st0" d="M72.85,58.79"/>
</svg>
